<svg width="28" height="28" viewBox="0 0 28 28" fill="none" xmlns="http://www.w3.org/2000/svg">
<path d="M14.0002 18.6667C7.28026 18.6667 6.08981 11.9695 5.87892 6.65755C5.82026 5.17997 5.79093 4.44118 6.34594 3.75764C6.90094 3.07409 7.5652 2.96202 8.89372 2.73787C10.2051 2.5166 11.9194 2.33333 14.0002 2.33333C16.081 2.33333 17.7953 2.5166 19.1067 2.73787C20.4352 2.96202 21.0994 3.07409 21.6544 3.75764C22.2094 4.44118 22.1801 5.17997 22.1215 6.65755C21.9106 11.9695 20.7201 18.6667 14.0002 18.6667Z" stroke="#19181D" stroke-width="2"/>
<path d="M22.1667 5.83333L23.2734 6.20224C24.4285 6.58727 25.006 6.77978 25.3363 7.23809C25.6667 7.69641 25.6666 8.30518 25.6666 9.52273L25.6666 9.60734C25.6666 10.6115 25.6666 11.1136 25.4248 11.5244C25.1831 11.9352 24.7442 12.1791 23.8664 12.6668L20.4167 14.5833" stroke="#19181D" stroke-width="2"/>
<path d="M5.83328 5.83333L4.72655 6.20224C3.57148 6.58727 2.99395 6.77978 2.66362 7.23809C2.33329 7.69641 2.33331 8.30518 2.33334 9.52273L2.33335 9.60734C2.33337 10.6115 2.33339 11.1136 2.57511 11.5244C2.81683 11.9352 3.25574 12.1791 4.13356 12.6668L7.58328 14.5833" stroke="#19181D" stroke-width="2"/>
<path d="M14 19.8333V22.1667" stroke="#19181D" stroke-width="2" stroke-linecap="round"/>
<path d="M18.0833 25.6667H9.91666L10.3124 23.6879C10.4215 23.1425 10.9003 22.75 11.4564 22.75H16.5436C17.0997 22.75 17.5785 23.1425 17.6876 23.6879L18.0833 25.6667Z" stroke="#19181D" stroke-width="2" stroke-linecap="round" stroke-linejoin="round"/>
<path d="M21 25.6667H7" stroke="#19181D" stroke-width="2" stroke-linecap="round"/>
</svg>
