<svg width="28" height="28" viewBox="0 0 28 28" fill="none" xmlns="http://www.w3.org/2000/svg">
<path d="M25.6667 14C25.6667 20.4433 20.4433 25.6666 14 25.6666C7.55669 25.6666 2.33334 20.4433 2.33334 14C2.33334 7.55666 7.55669 2.33331 14 2.33331C20.4433 2.33331 25.6667 7.55666 25.6667 14Z" stroke="#E93838" stroke-width="2"/>
<path d="M22.1667 22.1667L20.4167 20.4167" stroke="#E93838" stroke-width="2" stroke-linecap="round"/>
<path d="M22.1667 5.83331L20.4167 7.58331" stroke="#E93838" stroke-width="2" stroke-linecap="round"/>
<path d="M5.83334 22.1667L7.58334 20.4167" stroke="#E93838" stroke-width="2" stroke-linecap="round"/>
<path d="M5.83334 5.83331L7.58334 7.58331" stroke="#E93838" stroke-width="2" stroke-linecap="round"/>
<path d="M2.33334 14H4.66668" stroke="#E93838" stroke-width="2" stroke-linecap="round"/>
<path d="M23.3331 14L25.6664 14" stroke="#E93838" stroke-width="2" stroke-linecap="round"/>
<path d="M14 4.66694L14 2.3336" stroke="#E93838" stroke-width="2" stroke-linecap="round"/>
<path d="M17.5 14C17.5 15.933 15.933 17.5 14 17.5C12.067 17.5 10.5 15.933 10.5 14C10.5 13.2647 11.0064 12.2448 11.634 11.2631C12.5725 9.79514 13.0417 9.06116 14 9.06116C14.9583 9.06116 15.4275 9.79514 16.366 11.2631C16.9936 12.2448 17.5 13.2647 17.5 14Z" stroke="#E93838" stroke-width="2"/>
</svg>
