<svg width="0" height="0" class="hidden">
  <symbol fill="none" xmlns="http://www.w3.org/2000/svg" viewBox="0 0 41 40" id="arrowLeft">
    <path d="M16.4499 9.88333L6.33325 20L16.4499 30.1167"  stroke-width="3" stroke-miterlimit="10" stroke-linecap="round" stroke-linejoin="round"></path>
    <path d="M34.6665 20H6.61646"  stroke-width="3" stroke-miterlimit="10" stroke-linecap="round" stroke-linejoin="round"></path>
  </symbol>
  <symbol fill="none" xmlns="http://www.w3.org/2000/svg" viewBox="0 0 28 28" id="Cup">
    <path d="M14.0002 18.6667C7.28026 18.6667 6.08981 11.9695 5.87892 6.65755C5.82026 5.17997 5.79093 4.44118 6.34594 3.75764C6.90094 3.07409 7.5652 2.96202 8.89372 2.73787C10.2051 2.5166 11.9194 2.33333 14.0002 2.33333C16.081 2.33333 17.7953 2.5166 19.1067 2.73787C20.4352 2.96202 21.0994 3.07409 21.6544 3.75764C22.2094 4.44118 22.1801 5.17997 22.1215 6.65755C21.9106 11.9695 20.7201 18.6667 14.0002 18.6667Z" stroke="#19181D" stroke-width="2"></path>
    <path d="M22.1667 5.83333L23.2734 6.20224C24.4285 6.58727 25.006 6.77978 25.3363 7.23809C25.6667 7.69641 25.6666 8.30518 25.6666 9.52273L25.6666 9.60734C25.6666 10.6115 25.6666 11.1136 25.4248 11.5244C25.1831 11.9352 24.7442 12.1791 23.8664 12.6668L20.4167 14.5833" stroke="#19181D" stroke-width="2"></path>
    <path d="M5.83328 5.83333L4.72655 6.20224C3.57148 6.58727 2.99395 6.77978 2.66362 7.23809C2.33329 7.69641 2.33331 8.30518 2.33334 9.52273L2.33335 9.60734C2.33337 10.6115 2.33339 11.1136 2.57511 11.5244C2.81683 11.9352 3.25574 12.1791 4.13356 12.6668L7.58328 14.5833" stroke="#19181D" stroke-width="2"></path>
    <path d="M14 19.8333V22.1667" stroke="#19181D" stroke-width="2" stroke-linecap="round"></path>
    <path d="M18.0833 25.6667H9.91666L10.3124 23.6879C10.4215 23.1425 10.9003 22.75 11.4564 22.75H16.5436C17.0997 22.75 17.5785 23.1425 17.6876 23.6879L18.0833 25.6667Z" stroke="#19181D" stroke-width="2" stroke-linecap="round" stroke-linejoin="round"></path>
    <path d="M21 25.6667H7" stroke="#19181D" stroke-width="2" stroke-linecap="round"></path>
  </symbol>
  <symbol fill="none" xmlns="http://www.w3.org/2000/svg" viewBox="0 0 32 32" id="HamburgerMenu">
    <path d="M28.5334 8L3.4667 8" stroke="#19181D" stroke-width="2" stroke-linecap="round"></path>
    <path d="M28.5334 15.8333L3.4667 15.8333" stroke="#19181D" stroke-width="2" stroke-linecap="round"></path>
    <path d="M28.5334 23.6667L3.4667 23.6667" stroke="#19181D" stroke-width="2" stroke-linecap="round"></path>
  </symbol>
  <symbol fill="none" xmlns="http://www.w3.org/2000/svg" viewBox="0 0 41 40" id="refresh">
    <path d="M37.1666 20C37.1666 29.2 29.6999 36.6667 20.4999 36.6667C11.2999 36.6667 5.68325 27.4 5.68325 27.4M5.68325 27.4H13.2166M5.68325 27.4V35.7333M3.83325 20C3.83325 10.8 11.2333 3.33334 20.4999 3.33334C31.6166 3.33334 37.1666 12.6 37.1666 12.6M37.1666 12.6V4.26668M37.1666 12.6H29.7666" stroke="white" stroke-width="3" stroke-linecap="round" stroke-linejoin="round"></path>
  </symbol>
  <symbol fill="none" xmlns="http://www.w3.org/2000/svg" viewBox="0 0 28 28" id="Spedometer" >
    <path d="M25.6667 14C25.6667 20.4433 20.4433 25.6666 14 25.6666C7.55669 25.6666 2.33334 20.4433 2.33334 14C2.33334 7.55666 7.55669 2.33331 14 2.33331C20.4433 2.33331 25.6667 7.55666 25.6667 14Z"  stroke-width="2"></path>
    <path d="M22.1667 22.1667L20.4167 20.4167"  stroke-width="2" stroke-linecap="round"></path>
    <path d="M22.1667 5.83331L20.4167 7.58331"  stroke-width="2" stroke-linecap="round"></path>
    <path d="M5.83334 22.1667L7.58334 20.4167"  stroke-width="2" stroke-linecap="round"></path>
    <path d="M5.83334 5.83331L7.58334 7.58331"  stroke-width="2" stroke-linecap="round"></path>
    <path d="M2.33334 14H4.66668" stroke-width="2" stroke-linecap="round"></path>
    <path d="M23.3331 14L25.6664 14" stroke-width="2" stroke-linecap="round"></path>
    <path d="M14 4.66694L14 2.3336"  stroke-width="2" stroke-linecap="round"></path>
    <path d="M17.5 14C17.5 15.933 15.933 17.5 14 17.5C12.067 17.5 10.5 15.933 10.5 14C10.5 13.2647 11.0064 12.2448 11.634 11.2631C12.5725 9.79514 13.0417 9.06116 14 9.06116C14.9583 9.06116 15.4275 9.79514 16.366 11.2631C16.9936 12.2448 17.5 13.2647 17.5 14Z"  stroke-width="2"></path>
  </symbol>
  <svg width="0" height="0" class="hidden">
  <symbol fill="none" xmlns="http://www.w3.org/2000/svg" viewBox="0 0 28 28" id="Heart">
    <path d="M10.4554 22.0626L11.0744 21.2773L10.4554 22.0626ZM14 6.41734L13.2795 7.11081C13.468 7.30667 13.7282 7.41734 14 7.41734C14.2718 7.41734 14.532 7.30667 14.7205 7.11081L14 6.41734ZM17.5446 22.0626L18.1637 22.848L17.5446 22.0626ZM10.4554 22.0626L11.0744 21.2773C9.29876 19.8775 7.37907 18.5264 5.8548 16.81C4.36481 15.1322 3.33333 13.1845 3.33333 10.6599H2.33333H1.33333C1.33333 13.8087 2.64652 16.2093 4.35937 18.138C6.03794 20.0282 8.17926 21.5417 9.83627 22.848L10.4554 22.0626ZM2.33333 10.6599H3.33333C3.33333 8.19731 4.72465 6.13868 6.61372 5.27518C8.43974 4.4405 10.9105 4.64953 13.2795 7.11081L14 6.41734L14.7205 5.72388C11.8397 2.73079 8.47711 2.22438 5.78226 3.45621C3.15044 4.65922 1.33333 7.44904 1.33333 10.6599H2.33333ZM10.4554 22.0626L9.83627 22.848C10.4327 23.3182 11.081 23.8261 11.7399 24.2111C12.3985 24.5959 13.1628 24.9166 14 24.9166V23.9166V22.9166C13.6705 22.9166 13.2682 22.7877 12.7489 22.4843C12.23 22.1811 11.6893 21.762 11.0744 21.2773L10.4554 22.0626ZM17.5446 22.0626L18.1637 22.848C19.8207 21.5417 21.9621 20.0282 23.6406 18.138C25.3535 16.2093 26.6667 13.8087 26.6667 10.6599H25.6667H24.6667C24.6667 13.1845 23.6352 15.1322 22.1452 16.81C20.6209 18.5264 18.7012 19.8775 16.9256 21.2773L17.5446 22.0626ZM25.6667 10.6599H26.6667C26.6667 7.44904 24.8496 4.65922 22.2177 3.45621C19.5229 2.22438 16.1603 2.73079 13.2795 5.72388L14 6.41734L14.7205 7.11081C17.0895 4.64953 19.5603 4.4405 21.3863 5.27518C23.2754 6.13868 24.6667 8.19731 24.6667 10.6599H25.6667ZM17.5446 22.0626L16.9256 21.2773C16.3107 21.762 15.77 22.1811 15.2511 22.4843C14.7318 22.7877 14.3295 22.9166 14 22.9166V23.9166V24.9166C14.8372 24.9166 15.6015 24.5959 16.2601 24.2111C16.919 23.8261 17.5673 23.3182 18.1637 22.848L17.5446 22.0626Z" fill="#E93838"></path>
  </symbol>
</svg>
<svg width="0" height="0" class="hidden">
  <symbol fill="none" xmlns="http://www.w3.org/2000/svg" viewBox="0 0 28 28" id="Smartphone">
    <path d="M4.66675 11.6666C4.66675 7.26687 4.66675 5.06698 6.03358 3.70015C7.40042 2.33331 9.60031 2.33331 14.0001 2.33331C18.3999 2.33331 20.5997 2.33331 21.9666 3.70015C23.3334 5.06698 23.3334 7.26687 23.3334 11.6666V16.3333C23.3334 20.7331 23.3334 22.933 21.9666 24.2998C20.5997 25.6666 18.3999 25.6666 14.0001 25.6666C9.60031 25.6666 7.40042 25.6666 6.03358 24.2998C4.66675 22.933 4.66675 20.7331 4.66675 16.3333V11.6666Z" stroke="#8C8A91" stroke-width="2"></path>
    <path d="M17.5 22.1667H10.5" stroke="#8C8A91" stroke-width="2" stroke-linecap="round"></path>
  </symbol>
</svg>
<svg width="0" height="0" class="hidden">
  <symbol fill="none" xmlns="http://www.w3.org/2000/svg" viewBox="0 0 21 20" id="arrows">
    <path d="M9.4583 5.59998L6.35828 2.5L3.2583 5.59998" stroke="#8C8A91" stroke-width="1.5" stroke-linecap="round" stroke-linejoin="round"></path>
    <path d="M6.3584 17.5V2.5" stroke="#8C8A91" stroke-width="1.5" stroke-linecap="round" stroke-linejoin="round"></path>
    <path d="M12.0415 14.4L15.1415 17.5L18.2415 14.4" stroke="#CDCDCD" stroke-width="1.5" stroke-linecap="round" stroke-linejoin="round"></path>
    <path d="M15.1416 2.5V17.5" stroke="#CDCDCD" stroke-width="1.5" stroke-linecap="round" stroke-linejoin="round"></path>
  </symbol>
  <symbol fill="none" xmlns="http://www.w3.org/2000/svg" viewBox="0 0 21 20" id="MedalStarCircle">
    <path d="M14.9166 6.66667V5.00001C14.9166 3.42866 14.9166 2.64298 14.4284 2.15483C13.9403 1.66667 13.1546 1.66667 11.5833 1.66667H9.91659C8.34524 1.66667 7.55956 1.66667 7.07141 2.15483C6.58325 2.64298 6.58325 3.42866 6.58325 5.00001V6.66667" stroke="#8C8A91" stroke-width="1.5"></path>
    <path d="M10.0383 10.0188C10.355 9.4507 10.5133 9.16667 10.75 9.16667C10.9867 9.16667 11.145 9.4507 11.4617 10.0188L11.5436 10.1657C11.6336 10.3272 11.6786 10.4079 11.7488 10.4611C11.8189 10.5144 11.9063 10.5341 12.081 10.5737L12.2401 10.6097C12.855 10.7488 13.1625 10.8184 13.2356 11.0536C13.3088 11.2888 13.0992 11.5339 12.68 12.0242L12.5715 12.151C12.4524 12.2903 12.3928 12.3599 12.366 12.4461C12.3392 12.5323 12.3482 12.6252 12.3663 12.8111L12.3827 12.9803C12.446 13.6343 12.4777 13.9613 12.2862 14.1067C12.0947 14.2521 11.8068 14.1196 11.2311 13.8545L11.0821 13.7859C10.9185 13.7105 10.8367 13.6729 10.75 13.6729C10.6633 13.6729 10.5815 13.7105 10.4179 13.7859L10.2689 13.8545C9.69317 14.1196 9.40529 14.2521 9.21379 14.1067C9.02228 13.9613 9.05397 13.6343 9.11735 12.9803L9.13375 12.8111C9.15176 12.6252 9.16076 12.5323 9.13397 12.4461C9.10717 12.3599 9.04761 12.2903 8.92848 12.151L8.82002 12.0242C8.40081 11.5339 8.19121 11.2888 8.26436 11.0536C8.3375 10.8184 8.64496 10.7488 9.25988 10.6097L9.41897 10.5737C9.59371 10.5341 9.68108 10.5144 9.75124 10.4611C9.82139 10.4079 9.86638 10.3272 9.95637 10.1657L10.0383 10.0188Z" stroke="#8C8A91" stroke-width="1.5"></path>
    <circle cx="10.7499" cy="11.6667" r="6.66667" stroke="#8C8A91" stroke-width="1.5"></circle>
  </symbol>
</svg>
<svg width="0" height="0" class="hidden">
  <symbol xmlns="http://www.w3.org/2000/svg" viewBox="0 0 50 50" id="accept">
    <path d="M 41.9375 8.625 C 41.273438 8.648438 40.664063 9 40.3125 9.5625 L 21.5 38.34375 L 9.3125 27.8125 C 8.789063 27.269531 8.003906 27.066406 7.28125 27.292969 C 6.5625 27.515625 6.027344 28.125 5.902344 28.867188 C 5.777344 29.613281 6.078125 30.363281 6.6875 30.8125 L 20.625 42.875 C 21.0625 43.246094 21.640625 43.410156 22.207031 43.328125 C 22.777344 43.242188 23.28125 42.917969 23.59375 42.4375 L 43.6875 11.75 C 44.117188 11.121094 44.152344 10.308594 43.78125 9.644531 C 43.410156 8.984375 42.695313 8.589844 41.9375 8.625 Z"></path>
  </symbol>
</svg>
</svg>