<svg width="0" height="0" class="hidden">
  <symbol fill="none" xmlns="http://www.w3.org/2000/svg" viewBox="0 0 41 40" id="arrowLeft">
    <path d="M16.4499 9.88333L6.33325 20L16.4499 30.1167" stroke="white" stroke-width="3" stroke-miterlimit="10" stroke-linecap="round" stroke-linejoin="round"></path>
    <path d="M34.6665 20H6.61646" stroke="white" stroke-width="3" stroke-miterlimit="10" stroke-linecap="round" stroke-linejoin="round"></path>
  </symbol>
  <symbol fill="none" xmlns="http://www.w3.org/2000/svg" viewBox="0 0 28 28" id="Cup">
    <path d="M14.0002 18.6667C7.28026 18.6667 6.08981 11.9695 5.87892 6.65755C5.82026 5.17997 5.79093 4.44118 6.34594 3.75764C6.90094 3.07409 7.5652 2.96202 8.89372 2.73787C10.2051 2.5166 11.9194 2.33333 14.0002 2.33333C16.081 2.33333 17.7953 2.5166 19.1067 2.73787C20.4352 2.96202 21.0994 3.07409 21.6544 3.75764C22.2094 4.44118 22.1801 5.17997 22.1215 6.65755C21.9106 11.9695 20.7201 18.6667 14.0002 18.6667Z" stroke="#19181D" stroke-width="2"></path>
    <path d="M22.1667 5.83333L23.2734 6.20224C24.4285 6.58727 25.006 6.77978 25.3363 7.23809C25.6667 7.69641 25.6666 8.30518 25.6666 9.52273L25.6666 9.60734C25.6666 10.6115 25.6666 11.1136 25.4248 11.5244C25.1831 11.9352 24.7442 12.1791 23.8664 12.6668L20.4167 14.5833" stroke="#19181D" stroke-width="2"></path>
    <path d="M5.83328 5.83333L4.72655 6.20224C3.57148 6.58727 2.99395 6.77978 2.66362 7.23809C2.33329 7.69641 2.33331 8.30518 2.33334 9.52273L2.33335 9.60734C2.33337 10.6115 2.33339 11.1136 2.57511 11.5244C2.81683 11.9352 3.25574 12.1791 4.13356 12.6668L7.58328 14.5833" stroke="#19181D" stroke-width="2"></path>
    <path d="M14 19.8333V22.1667" stroke="#19181D" stroke-width="2" stroke-linecap="round"></path>
    <path d="M18.0833 25.6667H9.91666L10.3124 23.6879C10.4215 23.1425 10.9003 22.75 11.4564 22.75H16.5436C17.0997 22.75 17.5785 23.1425 17.6876 23.6879L18.0833 25.6667Z" stroke="#19181D" stroke-width="2" stroke-linecap="round" stroke-linejoin="round"></path>
    <path d="M21 25.6667H7" stroke="#19181D" stroke-width="2" stroke-linecap="round"></path>
  </symbol>
  <symbol fill="none" xmlns="http://www.w3.org/2000/svg" viewBox="0 0 32 32" id="HamburgerMenu">
    <path d="M28.5334 8L3.4667 8" stroke="#19181D" stroke-width="2" stroke-linecap="round"></path>
    <path d="M28.5334 15.8333L3.4667 15.8333" stroke="#19181D" stroke-width="2" stroke-linecap="round"></path>
    <path d="M28.5334 23.6667L3.4667 23.6667" stroke="#19181D" stroke-width="2" stroke-linecap="round"></path>
  </symbol>
  <symbol fill="none" xmlns="http://www.w3.org/2000/svg" viewBox="0 0 41 40" id="refresh">
    <path d="M37.1666 20C37.1666 29.2 29.6999 36.6667 20.4999 36.6667C11.2999 36.6667 5.68325 27.4 5.68325 27.4M5.68325 27.4H13.2166M5.68325 27.4V35.7333M3.83325 20C3.83325 10.8 11.2333 3.33334 20.4999 3.33334C31.6166 3.33334 37.1666 12.6 37.1666 12.6M37.1666 12.6V4.26668M37.1666 12.6H29.7666" stroke="white" stroke-width="3" stroke-linecap="round" stroke-linejoin="round"></path>
  </symbol>
  <symbol fill="none" xmlns="http://www.w3.org/2000/svg" viewBox="0 0 28 28" id="Spedometer" >
    <path d="M25.6667 14C25.6667 20.4433 20.4433 25.6666 14 25.6666C7.55669 25.6666 2.33334 20.4433 2.33334 14C2.33334 7.55666 7.55669 2.33331 14 2.33331C20.4433 2.33331 25.6667 7.55666 25.6667 14Z"  stroke-width="2"></path>
    <path d="M22.1667 22.1667L20.4167 20.4167"  stroke-width="2" stroke-linecap="round"></path>
    <path d="M22.1667 5.83331L20.4167 7.58331"  stroke-width="2" stroke-linecap="round"></path>
    <path d="M5.83334 22.1667L7.58334 20.4167"  stroke-width="2" stroke-linecap="round"></path>
    <path d="M5.83334 5.83331L7.58334 7.58331"  stroke-width="2" stroke-linecap="round"></path>
    <path d="M2.33334 14H4.66668" stroke-width="2" stroke-linecap="round"></path>
    <path d="M23.3331 14L25.6664 14" stroke-width="2" stroke-linecap="round"></path>
    <path d="M14 4.66694L14 2.3336"  stroke-width="2" stroke-linecap="round"></path>
    <path d="M17.5 14C17.5 15.933 15.933 17.5 14 17.5C12.067 17.5 10.5 15.933 10.5 14C10.5 13.2647 11.0064 12.2448 11.634 11.2631C12.5725 9.79514 13.0417 9.06116 14 9.06116C14.9583 9.06116 15.4275 9.79514 16.366 11.2631C16.9936 12.2448 17.5 13.2647 17.5 14Z"  stroke-width="2"></path>
  </symbol>
  <svg width="0" height="0" class="hidden">
  <symbol fill="none" xmlns="http://www.w3.org/2000/svg" viewBox="0 0 28 28" id="Heart">
    <path d="M10.4554 22.0626L11.0744 21.2773L10.4554 22.0626ZM14 6.41734L13.2795 7.11081C13.468 7.30667 13.7282 7.41734 14 7.41734C14.2718 7.41734 14.532 7.30667 14.7205 7.11081L14 6.41734ZM17.5446 22.0626L18.1637 22.848L17.5446 22.0626ZM10.4554 22.0626L11.0744 21.2773C9.29876 19.8775 7.37907 18.5264 5.8548 16.81C4.36481 15.1322 3.33333 13.1845 3.33333 10.6599H2.33333H1.33333C1.33333 13.8087 2.64652 16.2093 4.35937 18.138C6.03794 20.0282 8.17926 21.5417 9.83627 22.848L10.4554 22.0626ZM2.33333 10.6599H3.33333C3.33333 8.19731 4.72465 6.13868 6.61372 5.27518C8.43974 4.4405 10.9105 4.64953 13.2795 7.11081L14 6.41734L14.7205 5.72388C11.8397 2.73079 8.47711 2.22438 5.78226 3.45621C3.15044 4.65922 1.33333 7.44904 1.33333 10.6599H2.33333ZM10.4554 22.0626L9.83627 22.848C10.4327 23.3182 11.081 23.8261 11.7399 24.2111C12.3985 24.5959 13.1628 24.9166 14 24.9166V23.9166V22.9166C13.6705 22.9166 13.2682 22.7877 12.7489 22.4843C12.23 22.1811 11.6893 21.762 11.0744 21.2773L10.4554 22.0626ZM17.5446 22.0626L18.1637 22.848C19.8207 21.5417 21.9621 20.0282 23.6406 18.138C25.3535 16.2093 26.6667 13.8087 26.6667 10.6599H25.6667H24.6667C24.6667 13.1845 23.6352 15.1322 22.1452 16.81C20.6209 18.5264 18.7012 19.8775 16.9256 21.2773L17.5446 22.0626ZM25.6667 10.6599H26.6667C26.6667 7.44904 24.8496 4.65922 22.2177 3.45621C19.5229 2.22438 16.1603 2.73079 13.2795 5.72388L14 6.41734L14.7205 7.11081C17.0895 4.64953 19.5603 4.4405 21.3863 5.27518C23.2754 6.13868 24.6667 8.19731 24.6667 10.6599H25.6667ZM17.5446 22.0626L16.9256 21.2773C16.3107 21.762 15.77 22.1811 15.2511 22.4843C14.7318 22.7877 14.3295 22.9166 14 22.9166V23.9166V24.9166C14.8372 24.9166 15.6015 24.5959 16.2601 24.2111C16.919 23.8261 17.5673 23.3182 18.1637 22.848L17.5446 22.0626Z" fill="#E93838"></path>
  </symbol>
</svg>
<svg width="0" height="0" class="hidden">
  <symbol fill="none" xmlns="http://www.w3.org/2000/svg" viewBox="0 0 28 28" id="Smartphone">
    <path d="M4.66675 11.6666C4.66675 7.26687 4.66675 5.06698 6.03358 3.70015C7.40042 2.33331 9.60031 2.33331 14.0001 2.33331C18.3999 2.33331 20.5997 2.33331 21.9666 3.70015C23.3334 5.06698 23.3334 7.26687 23.3334 11.6666V16.3333C23.3334 20.7331 23.3334 22.933 21.9666 24.2998C20.5997 25.6666 18.3999 25.6666 14.0001 25.6666C9.60031 25.6666 7.40042 25.6666 6.03358 24.2998C4.66675 22.933 4.66675 20.7331 4.66675 16.3333V11.6666Z" stroke="#8C8A91" stroke-width="2"></path>
    <path d="M17.5 22.1667H10.5" stroke="#8C8A91" stroke-width="2" stroke-linecap="round"></path>
  </symbol>
</svg>
</svg>